<svg width="99" height="20" viewBox="0 0 99 20" fill="none" xmlns="http://www.w3.org/2000/svg">
<path fill-rule="evenodd" clip-rule="evenodd" d="M18.1712 18.1713C18.9205 17.422 19.0617 16.4086 18.9791 15.5333C18.8954 14.6468 18.5698 13.6842 18.1075 12.724C17.6909 11.8587 17.1354 10.9384 16.4632 9.99998C17.1354 9.06155 17.6909 8.14122 18.1075 7.27597C18.5698 6.31577 18.8954 5.35316 18.9791 4.46663C19.0617 3.59135 18.9205 2.57795 18.1712 1.82873C17.422 1.07951 16.4087 0.938272 15.5333 1.0209C14.6469 1.10457 13.6843 1.43019 12.7241 1.8925C11.8587 2.30912 10.9384 2.86456 10 3.53679C9.06161 2.86456 8.14127 2.30912 7.27593 1.8925C6.31573 1.43019 5.35312 1.10457 4.46668 1.0209C3.59136 0.938272 2.57795 1.07951 1.82873 1.82873C1.07951 2.57795 0.938272 3.59135 1.0209 4.46663C1.10458 5.35316 1.43019 6.31577 1.8925 7.27597C2.30913 8.14122 2.86457 9.06155 3.5368 9.99998C2.86457 10.9384 2.30913 11.8587 1.8925 12.724C1.43019 13.6842 1.10458 14.6468 1.0209 15.5333C0.938272 16.4086 1.07951 17.422 1.82873 18.1713C2.57795 18.9205 3.59136 19.0617 4.46668 18.9791C5.35312 18.8954 6.31573 18.5697 7.27593 18.1075C8.14127 17.6908 9.06161 17.1354 10 16.4632C10.9384 17.1354 11.8587 17.6908 12.7241 18.1075C13.6843 18.5697 14.6469 18.8954 15.5333 18.9791C16.4087 19.0617 17.422 18.9205 18.1712 18.1713ZM10 14.7649C10.8372 14.1104 11.6886 13.3583 12.5235 12.5235C13.3584 11.6886 14.1105 10.8371 14.7649 9.99998C14.1105 9.16285 13.3584 8.31138 12.5235 7.47646C11.6886 6.64165 10.8372 5.88955 10 5.2351C9.16282 5.88955 8.31144 6.64165 7.47652 7.47646C6.6416 8.31138 5.88951 9.16285 5.23506 9.99998C5.88951 10.8371 6.6416 11.6886 7.47652 12.5235C8.31144 13.3583 9.16282 14.1104 10 14.7649ZM11.1356 15.5993C11.9235 14.965 12.7137 14.2559 13.4848 13.4848C14.2559 12.7137 14.9651 11.9235 15.5994 11.1355C17.4614 13.8441 18.1779 16.242 17.21 17.2099C16.242 18.1779 13.8442 17.4614 11.1356 15.5993ZM4.40062 11.1355C5.03504 11.9235 5.74409 12.7137 6.51516 13.4848C7.28633 14.2559 8.07647 14.965 8.86448 15.5993C6.15577 17.4614 3.75802 18.1779 2.79006 17.2099C1.8221 16.242 2.53856 13.8441 4.40062 11.1355ZM4.40062 8.86442C5.03504 8.0765 5.74409 7.28627 6.51516 6.51521C7.28633 5.74404 8.07647 5.03499 8.86448 4.40067C6.15577 2.53855 3.75802 1.8221 2.79006 2.79006C1.8221 3.75802 2.53856 6.15582 4.40062 8.86442ZM11.1356 4.40067C11.9235 5.03499 12.7137 5.74404 13.4848 6.51521C14.2559 7.28627 14.9651 8.0765 15.5994 8.86442C17.4614 6.15582 18.1779 3.75802 17.21 2.79006C16.242 1.8221 13.8442 2.53855 11.1356 4.40067Z" fill="white" stroke="white" stroke-width="0.5"/>
<path d="M38.221 6.20182C38.4071 6.00621 38.6242 5.9084 38.8724 5.9084C39.1412 5.9084 39.3583 6.00621 39.5238 6.20182C39.7099 6.3757 39.803 6.60392 39.803 6.88647V17.3192C39.803 17.5801 39.7099 17.8083 39.5238 18.0039C39.3583 18.1995 39.1412 18.2973 38.8724 18.2973C38.6242 18.2973 38.4071 18.1995 38.221 18.0039C38.0349 17.8083 37.9418 17.5801 37.9418 17.3192V16.6346C36.8044 17.7431 35.4603 18.2973 33.9093 18.2973C32.0896 18.2973 30.58 17.5583 29.3806 16.0803C28.2018 14.6024 27.7779 12.8853 28.1088 10.9292C28.3363 9.69027 28.8739 8.62526 29.7218 7.73413C30.5903 6.82127 31.6139 6.24529 32.7927 6.00621C33.7646 5.83233 34.6952 5.88666 35.5844 6.16922C36.4943 6.45177 37.2801 6.91907 37.9418 7.57112V6.88647C37.9418 6.60392 38.0349 6.3757 38.221 6.20182ZM31.0556 15.1023C31.8414 15.9282 32.7927 16.3412 33.9093 16.3412C35.026 16.3412 35.9773 15.9282 36.7631 15.1023C37.5489 14.2763 37.9418 13.2765 37.9418 12.1029C37.9418 10.9292 37.5489 9.92936 36.7631 9.10343C35.9773 8.27751 35.026 7.86454 33.9093 7.86454C32.7927 7.86454 31.8414 8.27751 31.0556 9.10343C30.2698 9.92936 29.8769 10.9292 29.8769 12.1029C29.8769 13.2765 30.2698 14.2763 31.0556 15.1023Z" fill="white"/>
<path d="M48.4265 16.3738C48.6953 16.3738 48.9124 16.4716 49.0779 16.6672C49.264 16.8411 49.3571 17.0693 49.3571 17.3518C49.3571 17.6127 49.264 17.8409 49.0779 18.0365C48.9124 18.2321 48.6953 18.3299 48.4265 18.3299C47.3718 18.3299 46.3896 18.0582 45.4797 17.5148C44.5698 16.9497 43.846 16.189 43.3083 15.2327C42.7914 14.2763 42.5329 13.2439 42.5329 12.1355V2.64816C42.5329 2.38734 42.6259 2.15913 42.812 1.96351C42.9982 1.7679 43.2153 1.67009 43.4634 1.67009C43.7323 1.67009 43.9494 1.7679 44.1148 1.96351C44.301 2.15913 44.394 2.38734 44.394 2.64816V5.9084L48.4265 5.941C48.4678 5.941 48.4989 5.941 48.5195 5.941C48.747 5.96274 48.9435 6.07141 49.1089 6.26703C49.2743 6.4409 49.3571 6.65825 49.3571 6.91907C49.3571 7.17989 49.264 7.40811 49.0779 7.60372C48.9124 7.79934 48.6953 7.89714 48.4265 7.89714L44.394 7.86454V12.1355C44.394 13.2874 44.7869 14.2872 45.5727 15.1349C46.3585 15.9608 47.3098 16.3738 48.4265 16.3738Z" fill="white"/>
<path d="M56.901 5.9084C57.9763 5.9084 58.9586 6.19095 59.8478 6.75606C60.7577 7.29943 61.4711 8.04929 61.9881 9.00562C62.5258 9.94023 62.7946 10.9726 62.7946 12.1029C62.7946 13.7982 62.2156 15.2544 61.0575 16.4716C59.9202 17.6887 58.5346 18.2973 56.901 18.2973C55.288 18.2973 53.9025 17.6887 52.7444 16.4716C51.5864 15.2544 51.0074 13.7982 51.0074 12.1029C51.0074 10.3858 51.5864 8.92955 52.7444 7.73413C53.9025 6.51698 55.288 5.9084 56.901 5.9084ZM54.0472 15.1023C54.833 15.9282 55.7843 16.3412 56.901 16.3412C58.0177 16.3412 58.9689 15.9282 59.7547 15.1023C60.5405 14.2763 60.9335 13.2765 60.9335 12.1029C60.9335 10.9292 60.5405 9.92936 59.7547 9.10343C58.9689 8.27751 58.0177 7.86454 56.901 7.86454C55.7843 7.86454 54.833 8.27751 54.0472 9.10343C53.2614 9.92936 52.8685 10.9292 52.8685 12.1029C52.8685 13.2765 53.2614 14.2763 54.0472 15.1023Z" fill="white"/>
<path d="M76.2096 5.9084C77.409 5.9084 78.4326 6.35397 79.2805 7.2451C80.1283 8.13623 80.5523 9.21211 80.5523 10.4727V18.2973H78.6911V10.4727C78.6911 9.75548 78.443 9.1469 77.9467 8.647C77.471 8.12536 76.892 7.86454 76.2096 7.86454C75.5272 7.86454 74.9378 8.12536 74.4415 8.647C73.9659 9.1469 73.7281 9.75548 73.7281 10.4727V18.2973H71.8669V10.4727C71.8669 9.75548 71.6188 9.1469 71.1225 8.647C70.6469 8.12536 70.0678 7.86454 69.3854 7.86454C68.703 7.86454 68.1136 8.12536 67.6173 8.647C67.1417 9.1469 66.9039 9.75548 66.9039 10.4727V18.2973H65.0427V10.4727C65.0427 9.21211 65.4667 8.13623 66.3145 7.2451C67.1624 6.35397 68.186 5.9084 69.3854 5.9084C70.7916 5.9084 71.929 6.49524 72.7975 7.66893C73.666 6.49524 74.8034 5.9084 76.2096 5.9084Z" fill="white"/>
<path d="M83.6825 6.20182C83.8686 6.00621 84.0858 5.9084 84.3339 5.9084C84.5821 5.9084 84.7992 6.00621 84.9853 6.20182C85.1714 6.3757 85.2645 6.60392 85.2645 6.88647V17.3192C85.2645 17.5801 85.1714 17.8083 84.9853 18.0039C84.7992 18.1995 84.5821 18.2973 84.3339 18.2973C84.0858 18.2973 83.8686 18.1995 83.6825 18.0039C83.4964 17.8083 83.4033 17.5801 83.4033 17.3192V6.88647C83.4033 6.60392 83.4964 6.3757 83.6825 6.20182ZM83.6825 1.96351C83.8686 1.7679 84.0858 1.67009 84.3339 1.67009C84.5821 1.67009 84.7992 1.7679 84.9853 1.96351C85.1714 2.15913 85.2645 2.39821 85.2645 2.68076C85.2645 2.94158 85.1714 3.1698 84.9853 3.36541C84.7992 3.53929 84.5821 3.62623 84.3339 3.62623C84.0858 3.62623 83.8686 3.53929 83.6825 3.36541C83.4964 3.1698 83.4033 2.94158 83.4033 2.68076C83.4033 2.39821 83.4964 2.15913 83.6825 1.96351Z" fill="white"/>
<path d="M97.0898 14.8088C97.3379 14.8088 97.555 14.9067 97.7412 15.1023C97.9273 15.2761 98.0203 15.5044 98.0203 15.7869C98.041 16.0477 97.9583 16.276 97.7722 16.4716C97.5447 16.7107 97.2966 16.928 97.0277 17.1236C95.9938 17.9061 94.846 18.2973 93.5846 18.2973C92.3232 18.2973 91.1755 17.9061 90.1415 17.1236C89.6245 16.7324 89.1799 16.2651 88.8077 15.7217C88.0632 14.635 87.691 13.4287 87.691 12.1029C87.691 10.7553 88.0632 9.53813 88.8077 8.45139C89.1799 7.92975 89.6245 7.47331 90.1415 7.08209C91.1755 6.29963 92.3232 5.9084 93.5846 5.9084C94.846 5.9084 95.9938 6.29963 97.0277 7.08209C97.2966 7.2777 97.5447 7.49505 97.7722 7.73413C97.9583 7.92975 98.041 8.15796 98.0203 8.41878C98.0203 8.6796 97.9273 8.90782 97.7412 9.10343C97.555 9.29905 97.3379 9.39685 97.0898 9.39685C96.8416 9.39685 96.6245 9.29905 96.4384 9.10343C96.2109 8.86435 95.9627 8.65787 95.6939 8.48399C95.0528 8.07102 94.3497 7.86454 93.5846 7.86454C92.8195 7.86454 92.1164 8.07102 91.4753 8.48399C90.9377 8.85348 90.5034 9.32078 90.1725 9.88589C89.7589 10.5597 89.5521 11.2987 89.5521 12.1029C89.5521 12.907 89.7589 13.646 90.1725 14.3198C90.5034 14.8849 90.9377 15.3414 91.4753 15.6891C92.1164 16.1238 92.8195 16.3412 93.5846 16.3412C94.3497 16.3412 95.0528 16.1238 95.6939 15.6891C95.9627 15.537 96.2109 15.3414 96.4384 15.1023C96.6245 14.9067 96.8416 14.8088 97.0898 14.8088Z" fill="white"/>
</svg>
