<svg width="466" height="142" viewBox="0 0 466 142" fill="none" xmlns="http://www.w3.org/2000/svg">
<mask id="path-1-outside-1_8_3" maskUnits="userSpaceOnUse" x="13" y="0" width="439" height="91" fill="black">
<rect fill="white" x="13" width="439" height="91"/>
<path d="M107.871 4.10515V90.0937C103.094 90.0937 98.9933 88.4217 95.5697 85.0777C92.2257 81.7337 90.5537 77.6732 90.5537 72.896V30.1406L68.4594 90.0937H65.4737C61.8909 90.0937 58.5867 89.0985 55.5611 87.108C52.6152 85.0379 50.5053 82.2911 49.2314 78.8674L31.4366 30.3794V90.0937H31.3171C26.54 90.0937 22.4396 88.4217 19.016 85.0777C15.672 81.7337 14 77.6732 14 72.896V4.10515H25.8234C27.6547 4.10515 29.4063 4.46343 31.0783 5.18C32.8299 5.89658 34.3427 6.89181 35.6166 8.16572C36.8905 9.43962 37.8459 10.9126 38.4829 12.5846L61.1743 68.8354L82.552 14.9731C83.8259 11.7088 85.9358 9.08134 88.8817 7.09086C91.8276 5.10038 95.0522 4.10515 98.5554 4.10515H107.871Z"/>
<path d="M144.226 6.73257C150.834 2.91086 158.199 1 166.32 1C174.521 1 181.925 2.91086 188.534 6.73257C195.142 10.4747 200.357 15.7295 204.179 22.4971C208.001 29.2648 209.911 36.948 209.911 45.5469C209.911 54.0661 208.001 61.7493 204.179 68.5966C200.357 75.3642 195.142 80.6589 188.534 84.4806C181.925 88.2227 174.521 90.0937 166.32 90.0937C158.199 90.0937 150.834 88.2227 144.226 84.4806C137.617 80.6589 132.402 75.3642 128.581 68.5966C124.759 61.7493 122.848 54.0661 122.848 45.5469C122.848 36.948 124.759 29.2648 128.581 22.4971C132.402 15.7295 137.617 10.4747 144.226 6.73257ZM179.696 20.4669C175.874 18.1579 171.416 17.0034 166.32 17.0034C161.224 17.0034 156.726 18.1579 152.825 20.4669C149.003 22.7758 146.017 26.08 143.867 30.3794C141.718 34.6789 140.643 39.7347 140.643 45.5469C140.643 51.2794 141.718 56.2954 143.867 60.5949C146.017 64.8943 149.003 68.1985 152.825 70.5074C156.726 72.8164 161.224 73.9709 166.32 73.9709C171.416 73.9709 175.874 72.8164 179.696 70.5074C183.597 68.1985 186.623 64.8943 188.773 60.5949C191.002 56.2954 192.117 51.2794 192.117 45.5469C192.117 39.7347 191.002 34.6789 188.773 30.3794C186.623 26.08 183.597 22.7758 179.696 20.4669Z"/>
<path d="M279.334 90.2132C276.308 90.2132 273.442 89.4568 270.735 87.944C268.108 86.4312 265.998 84.3612 264.405 81.7337L249.238 56.2954H241.594V90.2132C236.738 90.2132 232.598 88.5412 229.174 85.1972C225.83 81.7735 224.158 77.6333 224.158 72.7766V20.5863C224.158 15.7295 225.83 11.6291 229.174 8.28514C232.598 4.86152 236.738 3.14972 241.594 3.14972H257.359C267.471 3.14972 275.154 5.6179 280.409 10.5543C285.743 15.4907 288.41 21.9796 288.41 30.0211C288.41 36.6295 286.579 42.1631 282.917 46.6217C279.254 51.0008 273.96 53.9467 267.033 55.4594L288.769 90.2132H279.334ZM241.594 38.62C241.594 40.2124 242.112 41.5659 243.147 42.6806C244.262 43.7952 245.615 44.3526 247.208 44.3526H255.807C265.759 44.3526 270.735 39.9337 270.735 31.096C270.735 26.9558 269.501 23.7312 267.033 21.4223C264.644 19.0337 260.902 17.8394 255.807 17.8394H241.594V38.62Z"/>
<path d="M334.89 57.848H320.678V90.2132H315.662C313.432 90.2132 311.362 89.6558 309.451 88.5412C307.541 87.4265 306.028 85.9137 304.913 84.0029C303.798 82.092 303.241 80.0219 303.241 77.7926V15.5703C303.241 12.1467 304.435 9.24057 306.824 6.852C309.292 4.38381 312.238 3.14972 315.662 3.14972H334.89C345.161 3.14972 352.884 5.6179 358.059 10.5543C363.314 15.4907 365.941 22.1787 365.941 30.6183C365.941 38.9783 363.234 45.6265 357.82 50.5629C352.485 55.4196 344.842 57.848 334.89 57.848ZM333.098 43.9943C343.289 43.9943 348.385 39.5356 348.385 30.6183C348.385 26.3189 347.191 23.0147 344.802 20.7057C342.414 18.3968 338.512 17.2423 333.098 17.2423H320.678V39.0977C320.678 40.4512 321.155 41.6057 322.111 42.5611C323.066 43.5166 324.221 43.9943 325.574 43.9943H333.098Z"/>
<path d="M451.057 3.14972H451.177V90.2132H451.057C446.28 90.2132 442.18 88.5412 438.756 85.1972C435.333 81.7735 433.621 77.6333 433.621 72.7766V52.3543H396.478V90.2132C391.622 90.2132 387.481 88.5412 384.058 85.1972C380.714 81.7735 379.042 77.6333 379.042 72.7766V20.5863C379.042 15.7295 380.714 11.6291 384.058 8.28514C387.481 4.86152 391.622 3.14972 396.478 3.14972V38.3811H433.621V20.5863C433.621 15.7295 435.333 11.6291 438.756 8.28514C442.18 4.86152 446.28 3.14972 451.057 3.14972Z"/>
</mask>
<path d="M107.871 4.10515V90.0937C103.094 90.0937 98.9933 88.4217 95.5697 85.0777C92.2257 81.7337 90.5537 77.6732 90.5537 72.896V30.1406L68.4594 90.0937H65.4737C61.8909 90.0937 58.5867 89.0985 55.5611 87.108C52.6152 85.0379 50.5053 82.2911 49.2314 78.8674L31.4366 30.3794V90.0937H31.3171C26.54 90.0937 22.4396 88.4217 19.016 85.0777C15.672 81.7337 14 77.6732 14 72.896V4.10515H25.8234C27.6547 4.10515 29.4063 4.46343 31.0783 5.18C32.8299 5.89658 34.3427 6.89181 35.6166 8.16572C36.8905 9.43962 37.8459 10.9126 38.4829 12.5846L61.1743 68.8354L82.552 14.9731C83.8259 11.7088 85.9358 9.08134 88.8817 7.09086C91.8276 5.10038 95.0522 4.10515 98.5554 4.10515H107.871Z" fill="white"/>
<path d="M144.226 6.73257C150.834 2.91086 158.199 1 166.32 1C174.521 1 181.925 2.91086 188.534 6.73257C195.142 10.4747 200.357 15.7295 204.179 22.4971C208.001 29.2648 209.911 36.948 209.911 45.5469C209.911 54.0661 208.001 61.7493 204.179 68.5966C200.357 75.3642 195.142 80.6589 188.534 84.4806C181.925 88.2227 174.521 90.0937 166.32 90.0937C158.199 90.0937 150.834 88.2227 144.226 84.4806C137.617 80.6589 132.402 75.3642 128.581 68.5966C124.759 61.7493 122.848 54.0661 122.848 45.5469C122.848 36.948 124.759 29.2648 128.581 22.4971C132.402 15.7295 137.617 10.4747 144.226 6.73257ZM179.696 20.4669C175.874 18.1579 171.416 17.0034 166.32 17.0034C161.224 17.0034 156.726 18.1579 152.825 20.4669C149.003 22.7758 146.017 26.08 143.867 30.3794C141.718 34.6789 140.643 39.7347 140.643 45.5469C140.643 51.2794 141.718 56.2954 143.867 60.5949C146.017 64.8943 149.003 68.1985 152.825 70.5074C156.726 72.8164 161.224 73.9709 166.32 73.9709C171.416 73.9709 175.874 72.8164 179.696 70.5074C183.597 68.1985 186.623 64.8943 188.773 60.5949C191.002 56.2954 192.117 51.2794 192.117 45.5469C192.117 39.7347 191.002 34.6789 188.773 30.3794C186.623 26.08 183.597 22.7758 179.696 20.4669Z" fill="white"/>
<path d="M279.334 90.2132C276.308 90.2132 273.442 89.4568 270.735 87.944C268.108 86.4312 265.998 84.3612 264.405 81.7337L249.238 56.2954H241.594V90.2132C236.738 90.2132 232.598 88.5412 229.174 85.1972C225.83 81.7735 224.158 77.6333 224.158 72.7766V20.5863C224.158 15.7295 225.83 11.6291 229.174 8.28514C232.598 4.86152 236.738 3.14972 241.594 3.14972H257.359C267.471 3.14972 275.154 5.6179 280.409 10.5543C285.743 15.4907 288.41 21.9796 288.41 30.0211C288.41 36.6295 286.579 42.1631 282.917 46.6217C279.254 51.0008 273.96 53.9467 267.033 55.4594L288.769 90.2132H279.334ZM241.594 38.62C241.594 40.2124 242.112 41.5659 243.147 42.6806C244.262 43.7952 245.615 44.3526 247.208 44.3526H255.807C265.759 44.3526 270.735 39.9337 270.735 31.096C270.735 26.9558 269.501 23.7312 267.033 21.4223C264.644 19.0337 260.902 17.8394 255.807 17.8394H241.594V38.62Z" fill="white"/>
<path d="M334.89 57.848H320.678V90.2132H315.662C313.432 90.2132 311.362 89.6558 309.451 88.5412C307.541 87.4265 306.028 85.9137 304.913 84.0029C303.798 82.092 303.241 80.0219 303.241 77.7926V15.5703C303.241 12.1467 304.435 9.24057 306.824 6.852C309.292 4.38381 312.238 3.14972 315.662 3.14972H334.89C345.161 3.14972 352.884 5.6179 358.059 10.5543C363.314 15.4907 365.941 22.1787 365.941 30.6183C365.941 38.9783 363.234 45.6265 357.82 50.5629C352.485 55.4196 344.842 57.848 334.89 57.848ZM333.098 43.9943C343.289 43.9943 348.385 39.5356 348.385 30.6183C348.385 26.3189 347.191 23.0147 344.802 20.7057C342.414 18.3968 338.512 17.2423 333.098 17.2423H320.678V39.0977C320.678 40.4512 321.155 41.6057 322.111 42.5611C323.066 43.5166 324.221 43.9943 325.574 43.9943H333.098Z" fill="white"/>
<path d="M451.057 3.14972H451.177V90.2132H451.057C446.28 90.2132 442.18 88.5412 438.756 85.1972C435.333 81.7735 433.621 77.6333 433.621 72.7766V52.3543H396.478V90.2132C391.622 90.2132 387.481 88.5412 384.058 85.1972C380.714 81.7735 379.042 77.6333 379.042 72.7766V20.5863C379.042 15.7295 380.714 11.6291 384.058 8.28514C387.481 4.86152 391.622 3.14972 396.478 3.14972V38.3811H433.621V20.5863C433.621 15.7295 435.333 11.6291 438.756 8.28514C442.18 4.86152 446.28 3.14972 451.057 3.14972Z" fill="white"/>
<path d="M107.871 4.10515V90.0937C103.094 90.0937 98.9933 88.4217 95.5697 85.0777C92.2257 81.7337 90.5537 77.6732 90.5537 72.896V30.1406L68.4594 90.0937H65.4737C61.8909 90.0937 58.5867 89.0985 55.5611 87.108C52.6152 85.0379 50.5053 82.2911 49.2314 78.8674L31.4366 30.3794V90.0937H31.3171C26.54 90.0937 22.4396 88.4217 19.016 85.0777C15.672 81.7337 14 77.6732 14 72.896V4.10515H25.8234C27.6547 4.10515 29.4063 4.46343 31.0783 5.18C32.8299 5.89658 34.3427 6.89181 35.6166 8.16572C36.8905 9.43962 37.8459 10.9126 38.4829 12.5846L61.1743 68.8354L82.552 14.9731C83.8259 11.7088 85.9358 9.08134 88.8817 7.09086C91.8276 5.10038 95.0522 4.10515 98.5554 4.10515H107.871Z" stroke="black" stroke-width="0.4" mask="url(#path-1-outside-1_8_3)"/>
<path d="M144.226 6.73257C150.834 2.91086 158.199 1 166.32 1C174.521 1 181.925 2.91086 188.534 6.73257C195.142 10.4747 200.357 15.7295 204.179 22.4971C208.001 29.2648 209.911 36.948 209.911 45.5469C209.911 54.0661 208.001 61.7493 204.179 68.5966C200.357 75.3642 195.142 80.6589 188.534 84.4806C181.925 88.2227 174.521 90.0937 166.32 90.0937C158.199 90.0937 150.834 88.2227 144.226 84.4806C137.617 80.6589 132.402 75.3642 128.581 68.5966C124.759 61.7493 122.848 54.0661 122.848 45.5469C122.848 36.948 124.759 29.2648 128.581 22.4971C132.402 15.7295 137.617 10.4747 144.226 6.73257ZM179.696 20.4669C175.874 18.1579 171.416 17.0034 166.32 17.0034C161.224 17.0034 156.726 18.1579 152.825 20.4669C149.003 22.7758 146.017 26.08 143.867 30.3794C141.718 34.6789 140.643 39.7347 140.643 45.5469C140.643 51.2794 141.718 56.2954 143.867 60.5949C146.017 64.8943 149.003 68.1985 152.825 70.5074C156.726 72.8164 161.224 73.9709 166.32 73.9709C171.416 73.9709 175.874 72.8164 179.696 70.5074C183.597 68.1985 186.623 64.8943 188.773 60.5949C191.002 56.2954 192.117 51.2794 192.117 45.5469C192.117 39.7347 191.002 34.6789 188.773 30.3794C186.623 26.08 183.597 22.7758 179.696 20.4669Z" stroke="black" stroke-width="0.4" mask="url(#path-1-outside-1_8_3)"/>
<path d="M279.334 90.2132C276.308 90.2132 273.442 89.4568 270.735 87.944C268.108 86.4312 265.998 84.3612 264.405 81.7337L249.238 56.2954H241.594V90.2132C236.738 90.2132 232.598 88.5412 229.174 85.1972C225.83 81.7735 224.158 77.6333 224.158 72.7766V20.5863C224.158 15.7295 225.83 11.6291 229.174 8.28514C232.598 4.86152 236.738 3.14972 241.594 3.14972H257.359C267.471 3.14972 275.154 5.6179 280.409 10.5543C285.743 15.4907 288.41 21.9796 288.41 30.0211C288.41 36.6295 286.579 42.1631 282.917 46.6217C279.254 51.0008 273.96 53.9467 267.033 55.4594L288.769 90.2132H279.334ZM241.594 38.62C241.594 40.2124 242.112 41.5659 243.147 42.6806C244.262 43.7952 245.615 44.3526 247.208 44.3526H255.807C265.759 44.3526 270.735 39.9337 270.735 31.096C270.735 26.9558 269.501 23.7312 267.033 21.4223C264.644 19.0337 260.902 17.8394 255.807 17.8394H241.594V38.62Z" stroke="black" stroke-width="0.4" mask="url(#path-1-outside-1_8_3)"/>
<path d="M334.89 57.848H320.678V90.2132H315.662C313.432 90.2132 311.362 89.6558 309.451 88.5412C307.541 87.4265 306.028 85.9137 304.913 84.0029C303.798 82.092 303.241 80.0219 303.241 77.7926V15.5703C303.241 12.1467 304.435 9.24057 306.824 6.852C309.292 4.38381 312.238 3.14972 315.662 3.14972H334.89C345.161 3.14972 352.884 5.6179 358.059 10.5543C363.314 15.4907 365.941 22.1787 365.941 30.6183C365.941 38.9783 363.234 45.6265 357.82 50.5629C352.485 55.4196 344.842 57.848 334.89 57.848ZM333.098 43.9943C343.289 43.9943 348.385 39.5356 348.385 30.6183C348.385 26.3189 347.191 23.0147 344.802 20.7057C342.414 18.3968 338.512 17.2423 333.098 17.2423H320.678V39.0977C320.678 40.4512 321.155 41.6057 322.111 42.5611C323.066 43.5166 324.221 43.9943 325.574 43.9943H333.098Z" stroke="black" stroke-width="0.4" mask="url(#path-1-outside-1_8_3)"/>
<path d="M451.057 3.14972H451.177V90.2132H451.057C446.28 90.2132 442.18 88.5412 438.756 85.1972C435.333 81.7735 433.621 77.6333 433.621 72.7766V52.3543H396.478V90.2132C391.622 90.2132 387.481 88.5412 384.058 85.1972C380.714 81.7735 379.042 77.6333 379.042 72.7766V20.5863C379.042 15.7295 380.714 11.6291 384.058 8.28514C387.481 4.86152 391.622 3.14972 396.478 3.14972V38.3811H433.621V20.5863C433.621 15.7295 435.333 11.6291 438.756 8.28514C442.18 4.86152 446.28 3.14972 451.057 3.14972Z" stroke="black" stroke-width="0.4" mask="url(#path-1-outside-1_8_3)"/>
<path d="M215.633 123.621V123.521H215.533H213.595C212.845 123.521 212.155 123.735 211.526 124.16C210.896 124.585 210.444 125.148 210.171 125.846C210.171 125.846 210.171 125.846 210.171 125.846L205.815 136.821L201.188 125.349C201.084 125.074 200.938 124.824 200.748 124.6C200.561 124.379 200.347 124.191 200.108 124.036C199.883 123.864 199.625 123.735 199.334 123.65C199.059 123.564 198.768 123.521 198.46 123.521H196H195.9V123.621V137.935C195.9 138.956 196.258 139.826 196.973 140.541L196.974 140.542C197.705 141.256 198.583 141.614 199.603 141.614H199.628H199.728V141.514V129.651L203.237 139.212L203.237 139.213C203.509 139.944 203.961 140.532 204.591 140.975L204.591 140.975L204.593 140.976C205.239 141.401 205.946 141.614 206.711 141.614H207.332H207.402L207.426 141.549L211.83 129.599V137.935C211.83 138.956 212.188 139.826 212.903 140.541L212.903 140.542C213.634 141.256 214.513 141.614 215.533 141.614H215.633V141.514V123.621ZM230.732 139.607L230.732 139.609C230.954 140.241 231.331 140.747 231.862 141.123C232.393 141.5 232.984 141.689 233.635 141.689H235.349H235.493L235.443 141.554L229.529 125.575L229.529 125.575L229.528 125.572C229.288 124.974 228.903 124.494 228.373 124.135C227.859 123.775 227.276 123.596 226.627 123.596C226.318 123.596 226.009 123.647 225.702 123.75C225.411 123.835 225.138 123.964 224.881 124.134L224.881 124.134L224.879 124.136C224.638 124.308 224.416 124.522 224.213 124.777L224.212 124.777C224.024 125.017 223.87 125.281 223.751 125.571L223.751 125.571L223.75 125.575L217.81 141.554L217.76 141.689H217.904H219.619C220.269 141.689 220.861 141.5 221.391 141.123C221.922 140.747 222.299 140.25 222.521 139.634L222.521 139.633L223.07 138.035H230.208L230.732 139.607ZM240.959 123.422V123.322H240.859C239.822 123.322 238.935 123.689 238.204 124.42C237.489 125.135 237.131 126.014 237.131 127.051V137.911C237.131 138.947 237.488 139.834 238.203 140.565L238.204 140.567C238.936 141.281 239.823 141.639 240.859 141.639H240.959V141.539V123.422ZM248.46 138.656V123.422V123.322H248.36H247.49C246.701 123.322 246.021 123.607 245.456 124.172C244.906 124.722 244.631 125.402 244.631 126.206V138.756C244.631 139.15 244.709 139.528 244.863 139.888L244.864 139.89C245.018 140.232 245.223 140.532 245.481 140.79C245.738 141.047 246.038 141.253 246.38 141.406L246.382 141.407C246.742 141.561 247.111 141.639 247.49 141.639H251.665C252.453 141.639 253.125 141.364 253.674 140.814C254.24 140.249 254.523 139.561 254.523 138.756V138.656H254.423H248.46ZM266.312 140.932L266.313 140.932C267.238 140.444 267.932 139.802 268.39 139.005C268.864 138.211 269.1 137.34 269.1 136.395C269.1 135.221 268.84 134.262 268.311 133.528C267.789 132.804 267.155 132.254 266.411 131.882C265.693 131.515 264.744 131.124 263.566 130.709L263.563 130.708C262.737 130.444 262.079 130.205 261.586 129.992C261.117 129.765 260.731 129.482 260.426 129.146C260.13 128.819 259.98 128.404 259.98 127.896C259.98 127.237 260.172 126.755 260.541 126.431C260.933 126.102 261.455 125.933 262.116 125.933C262.859 125.933 263.437 126.134 263.861 126.526C264.037 126.703 264.18 126.886 264.291 127.076L264.292 127.077C264.723 127.801 265.342 128.17 266.142 128.17H268.652H268.762L268.752 128.06C268.6 126.494 267.942 125.243 266.776 124.314C265.611 123.368 264.062 122.9 262.141 122.9C260.27 122.9 258.755 123.351 257.606 124.264L257.605 124.264C256.469 125.18 255.903 126.436 255.903 128.02C255.903 129.161 256.155 130.102 256.666 130.836L256.666 130.836L256.668 130.838C257.19 131.545 257.815 132.086 258.542 132.458L258.543 132.458C259.277 132.826 260.21 133.2 261.339 133.582L261.34 133.582C262.199 133.863 262.874 134.119 263.366 134.348L263.369 134.349C263.853 134.559 264.245 134.848 264.549 135.216L264.549 135.216L264.552 135.219C264.864 135.563 265.023 136.002 265.023 136.544C265.023 137.15 264.833 137.637 264.456 138.014C264.083 138.387 263.54 138.581 262.812 138.581C261.987 138.581 261.343 138.347 260.869 137.888L260.868 137.888C260.548 137.584 260.309 137.225 260.148 136.809C260.074 136.573 259.928 136.382 259.713 136.238C259.514 136.094 259.286 136.021 259.035 136.021H256.053H255.945L255.953 136.129C256.037 137.24 256.391 138.219 257.016 139.064L257.017 139.064C257.64 139.891 258.458 140.53 259.466 140.984L259.468 140.985C260.493 141.422 261.658 141.639 262.961 141.639C264.265 141.639 265.383 141.405 266.312 140.932ZM224.108 135.102L226.627 127.852L229.145 135.102H224.108Z" fill="white" stroke="black" stroke-width="0.2"/>
<path d="M1.9978 107.007L464.998 106" stroke="url(#paint0_linear_8_3)" stroke-opacity="0.8" stroke-width="2" stroke-linecap="round"/>
<defs>
<linearGradient id="paint0_linear_8_3" x1="600.999" y1="52.9942" x2="-112.001" y2="154.492" gradientUnits="userSpaceOnUse">
<stop stop-color="white"/>
<stop offset="1" stop-color="white" stop-opacity="0"/>
</linearGradient>
</defs>
</svg>
